<svg id="visual" viewBox="0 0 900 600" width="900" height="600" xmlns="http://www.w3.org/2000/svg" xmlns:xlink="http://www.w3.org/1999/xlink" version="1.1"><rect width="900" height="600" fill="#0066FF"></rect><g><g transform="translate(479 58)"><path d="M94.7 -34C105.8 3.2 86.1 47.3 51.8 72.4C17.6 97.5 -31.2 103.8 -61 82.5C-90.8 61.2 -101.6 12.3 -88.3 -28C-74.9 -68.3 -37.5 -100.1 2.2 -100.8C41.8 -101.5 83.7 -71.2 94.7 -34Z" stroke="#6600FF" fill="none" stroke-width="20"></path></g><g transform="translate(823 568)"><path d="M84.3 -29.2C96.2 9.2 83.8 53.7 54.9 74.3C26.1 94.9 -19.1 91.7 -48.2 69.8C-77.2 47.8 -90.1 7.2 -79.4 -29.6C-68.7 -66.4 -34.4 -99.3 0.9 -99.6C36.2 -99.9 72.4 -67.6 84.3 -29.2Z" stroke="#6600FF" fill="none" stroke-width="20"></path></g><g transform="translate(898 266)"><path d="M65.4 -21.2C72.9 1.9 59 31.9 37.6 46.2C16.1 60.5 -12.8 59 -34.8 43.9C-56.9 28.9 -72 0.3 -65 -22C-58 -44.3 -29 -60.3 0 -60.3C29 -60.2 57.9 -44.2 65.4 -21.2Z" stroke="#6600FF" fill="none" stroke-width="20"></path></g></g></svg>