<svg id="visual" viewBox="0 0 900 600" width="900" height="600" xmlns="http://www.w3.org/2000/svg" xmlns:xlink="http://www.w3.org/1999/xlink" version="1.1"><rect x="0" y="0" width="900" height="600" fill="#bed5e6"></rect><g fill="#dce5e4"><circle r="14" cx="570" cy="368"></circle><circle r="6" cx="189" cy="293"></circle><circle r="5" cx="823" cy="513"></circle><circle r="8" cx="159" cy="315"></circle><circle r="11" cx="481" cy="292"></circle><circle r="11" cx="732" cy="306"></circle><circle r="5" cx="268" cy="396"></circle><circle r="10" cx="871" cy="180"></circle><circle r="9" cx="637" cy="130"></circle><circle r="6" cx="622" cy="86"></circle><circle r="8" cx="647" cy="46"></circle><circle r="10" cx="35" cy="206"></circle><circle r="10" cx="898" cy="504"></circle><circle r="9" cx="71" cy="145"></circle><circle r="9" cx="217" cy="342"></circle><circle r="8" cx="232" cy="239"></circle><circle r="6" cx="627" cy="484"></circle><circle r="10" cx="428" cy="418"></circle><circle r="6" cx="271" cy="327"></circle><circle r="11" cx="569" cy="559"></circle><circle r="5" cx="389" cy="539"></circle><circle r="5" cx="490" cy="400"></circle><circle r="6" cx="455" cy="584"></circle><circle r="5" cx="716" cy="339"></circle><circle r="11" cx="163" cy="267"></circle><circle r="7" cx="352" cy="142"></circle><circle r="11" cx="226" cy="119"></circle><circle r="6" cx="500" cy="24"></circle><circle r="5" cx="478" cy="358"></circle><circle r="7" cx="425" cy="232"></circle><circle r="7" cx="734" cy="441"></circle><circle r="7" cx="440" cy="16"></circle><circle r="8" cx="43" cy="158"></circle><circle r="10" cx="206" cy="519"></circle><circle r="5" cx="90" cy="286"></circle><circle r="10" cx="754" cy="520"></circle><circle r="10" cx="895" cy="574"></circle><circle r="8" cx="249" cy="268"></circle><circle r="7" cx="800" cy="270"></circle><circle r="6" cx="502" cy="71"></circle><circle r="11" cx="277" cy="460"></circle><circle r="5" cx="384" cy="261"></circle><circle r="9" cx="186" cy="396"></circle><circle r="12" cx="622" cy="154"></circle><circle r="11" cx="766" cy="457"></circle><circle r="5" cx="288" cy="503"></circle><circle r="12" cx="439" cy="523"></circle><circle r="11" cx="571" cy="425"></circle><circle r="8" cx="32" cy="400"></circle><circle r="9" cx="677" cy="11"></circle><circle r="11" cx="193" cy="25"></circle><circle r="9" cx="15" cy="511"></circle><circle r="6" cx="393" cy="57"></circle><circle r="7" cx="50" cy="580"></circle><circle r="6" cx="766" cy="82"></circle><circle r="5" cx="150" cy="63"></circle><circle r="10" cx="775" cy="337"></circle><circle r="12" cx="88" cy="314"></circle><circle r="10" cx="849" cy="466"></circle><circle r="10" cx="397" cy="480"></circle><circle r="11" cx="261" cy="555"></circle><circle r="6" cx="876" cy="82"></circle><circle r="10" cx="352" cy="532"></circle><circle r="5" cx="505" cy="370"></circle><circle r="10" cx="566" cy="491"></circle><circle r="12" cx="317" cy="373"></circle><circle r="9" cx="495" cy="198"></circle><circle r="7" cx="257" cy="295"></circle><circle r="7" cx="9" cy="431"></circle><circle r="9" cx="128" cy="7"></circle><circle r="8" cx="639" cy="182"></circle><circle r="10" cx="624" cy="344"></circle><circle r="5" cx="187" cy="338"></circle><circle r="9" cx="22" cy="458"></circle><circle r="9" cx="693" cy="451"></circle><circle r="6" cx="811" cy="190"></circle><circle r="12" cx="786" cy="231"></circle><circle r="7" cx="416" cy="99"></circle><circle r="5" cx="898" cy="105"></circle><circle r="12" cx="522" cy="294"></circle><circle r="9" cx="28" cy="337"></circle><circle r="5" cx="90" cy="572"></circle><circle r="11" cx="750" cy="402"></circle><circle r="9" cx="325" cy="109"></circle><circle r="6" cx="368" cy="28"></circle><circle r="11" cx="768" cy="197"></circle><circle r="9" cx="152" cy="394"></circle><circle r="10" cx="394" cy="12"></circle><circle r="8" cx="553" cy="164"></circle></g></svg>