<svg id="visual" viewBox="0 0 900 600" width="900" height="600" xmlns="http://www.w3.org/2000/svg" xmlns:xlink="http://www.w3.org/1999/xlink" version="1.1"><rect x="0" y="0" width="900" height="600" fill="#7278f7"></rect><path d="M0 306L129 306L129 275L257 275L257 369L386 369L386 292L514 292L514 312L643 312L643 348L771 348L771 349L900 349L900 290L900 601L900 601L771 601L771 601L643 601L643 601L514 601L514 601L386 601L386 601L257 601L257 601L129 601L129 601L0 601Z" fill="#9b9cdd"></path><path d="M0 409L129 409L129 414L257 414L257 430L386 430L386 450L514 450L514 455L643 455L643 356L771 356L771 364L900 364L900 428L900 601L900 601L771 601L771 601L643 601L643 601L514 601L514 601L386 601L386 601L257 601L257 601L129 601L129 601L0 601Z" fill="#828be3"></path><path d="M0 533L129 533L129 544L257 544L257 518L386 518L386 491L514 491L514 461L643 461L643 510L771 510L771 482L900 482L900 501L900 601L900 601L771 601L771 601L643 601L643 601L514 601L514 601L386 601L386 601L257 601L257 601L129 601L129 601L0 601Z" fill="#617be9"></path></svg>